/* XPM */
static char *xchat[] = {
/* columns rows colors chars-per-pixel */
"32 32 216 2",
"   c #020100",
".  c #080601",
"X  c #0C0902",
"o  c #070808",
"O  c #150502",
"+  c #1B0702",
"@  c #120D01",
"#  c #1B0802",
"$  c #191302",
"%  c #1D1C1C",
"&  c #220B02",
"*  c #280F02",
"=  c #330C02",
"-  c #2B1102",
";  c #211B03",
":  c #351202",
">  c #3A1402",
",  c #2B2502",
"<  c #2C2802",
"1  c #312B02",
"2  c #3C2E02",
"3  c #3D3402",
"4  c #3F3902",
"5  c #21201F",
"6  c #5C0F02",
"7  c #4D1E00",
"8  c #5D1402",
"9  c #5D1B02",
"0  c #492203",
"q  c #402F02",
"w  c #532F02",
"e  c #403602",
"r  c #5D3703",
"t  c #5E3C03",
"y  c #63381B",
"u  c #423731",
"i  c #5F4103",
"p  c #6A4504",
"a  c #634803",
"s  c #694B04",
"d  c #635203",
"f  c #6C5003",
"g  c #755003",
"h  c #795504",
"j  c #755A03",
"k  c #654219",
"l  c #796104",
"z  c #775A2D",
"x  c #4C4C4C",
"c  c #515151",
"v  c #5C5C5B",
"b  c #6A5247",
"n  c #615B57",
"m  c #7F6856",
"M  c #7A685B",
"N  c #616161",
"B  c #747474",
"V  c #7A7B7B",
"C  c #931B04",
"Z  c #912203",
"A  c #9C2303",
"S  c #962804",
"D  c #9C2C03",
"F  c #A02403",
"G  c #A22A04",
"H  c #A13303",
"J  c #A83404",
"K  c #AE3A02",
"L  c #D52102",
"P  c #C33403",
"I  c #C43A00",
"U  c #D53002",
"Y  c #E02601",
"T  c #E12B01",
"R  c #FC2B00",
"E  c #E03A01",
"W  c #FE3300",
"Q  c #FD3B00",
"!  c #8A5C04",
"~  c #9F4C17",
"^  c #A44108",
"/  c #B44403",
"(  c #A15012",
")  c #BE5D15",
"_  c #B7561A",
"`  c #8C6103",
"'  c #936704",
"]  c #936A04",
"[  c #9A6F04",
"{  c #9A7404",
"}  c #A07B03",
"|  c #BE6115",
" . c #9A532E",
".. c #B26733",
"X. c #C14304",
"o. c #C44801",
"O. c #DE4F05",
"+. c #C15105",
"@. c #C05B0F",
"#. c #D35800",
"$. c #D45E0E",
"%. c #C05813",
"&. c #D05A15",
"*. c #E14101",
"=. c #EB4900",
"-. c #FE4300",
";. c #F04A00",
":. c #FE4B00",
">. c #EF5500",
",. c #ED5800",
"<. c #FE5300",
"1. c #F55B00",
"2. c #FE5B00",
"3. c #DB6100",
"4. c #DA7801",
"5. c #C26815",
"6. c #DB7F17",
"7. c #EE6000",
"8. c #ED6800",
"9. c #FE6400",
"0. c #FE6D00",
"q. c #E67C0F",
"w. c #F57218",
"e. c #F07B2D",
"r. c #976645",
"t. c #9C7655",
"y. c #AA7551",
"u. c #A57A54",
"i. c #A37359",
"p. c #AD7E58",
"a. c #DB7745",
"s. c #DD7B44",
"d. c #A88204",
"f. c #AC8B03",
"g. c #AF9503",
"h. c #B59503",
"j. c #BB9E03",
"k. c #B5A003",
"l. c #BBAA03",
"z. c #DE8102",
"x. c #DB8A00",
"c. c #CA9601",
"v. c #C99C01",
"b. c #E28802",
"n. c #FF8D00",
"m. c #F98C0B",
"M. c #E39302",
"N. c #E99702",
"B. c #EC9F01",
"V. c #FF9400",
"C. c #F39F01",
"Z. c #FE9C00",
"A. c #EC8D16",
"S. c #F38D15",
"D. c #F19016",
"F. c #F79A13",
"G. c #C9A301",
"H. c #C9AC02",
"J. c #C9B502",
"K. c #E5A002",
"L. c #EFA602",
"P. c #E9A902",
"I. c #F5A501",
"U. c #FFA400",
"Y. c #F5AD01",
"T. c #FFAC00",
"R. c #ECB301",
"E. c #EFBD02",
"W. c #F7B401",
"Q. c #FFB400",
"!. c #FEBB00",
"~. c #F2C702",
"^. c #FEC300",
"/. c #FFCB00",
"(. c #FFD300",
"). c #FFDC00",
"_. c #FFE500",
"`. c #9F836B",
"'. c #CF9E5D",
"]. c #E69854",
"[. c #F49451",
"{. c #F29B58",
"}. c #E4A546",
"|. c #E39F77",
" X c #E3B17B",
".X c #878787",
"XX c #888888",
"oX c #969696",
"OX c #B6A493",
"+X c #BDA793",
"@X c #BFA99A",
"#X c #ABABAB",
"$X c #C7B3A2",
"%X c #C9B4A2",
"&X c #D6BCA6",
"*X c #C7BEB6",
"=X c #F6C29A",
"-X c #EED1B3",
";X c #C4C4C4",
":X c #CBCBCB",
">X c #DCDCDC",
",X c #EEE5DB",
"<X c #F7E6DD",
"1X c #FDE9DC",
"2X c #E2E2E2",
"3X c #E9E6E3",
"4X c #E7E8E8",
"5X c #EDEDEC",
"6X c #FAEEE4",
"7X c #FEF0E6",
"8X c #F7F1EC",
"9X c #EFEFF0",
"0X c #F4F4F4",
"qX c #F7F8F9",
"wX c #FCFDFD",
"eX c None",
/* pixels */
"eXeXeXeXeXeXeXeXeXeXeXeXeXeXeXeXeXeXeXeXeXeXeXeXeXeXeXeXeXeXeXeX",
"eXeXeXeXeXeXeXeXeXeXeXeXeXeXeXeXeXeXeXeXeXeXeXeXeXeXeXeXeXeXeXeX",
"eXeXeXeXeX  1 < eXeXeXeXeXeXeXeXeXeXeXeXeXeXeXeX, 1   eXeXeXeXeX",
"eXeXeXeX  4 J.l.< eXeXeXeXeXeXeXeXeXeXeXeXeXeX, j.H.3   eXeXeXeX",
"eXeXeX  4 J._._.g.< eXeXeXeXeXeXeXeXeXeXeXeX, h.(.(.G.3   eXeXeX",
"eXeX  3 H._.).).).g.; eXeXeXeXeXeXeXeXeXeX; f./.^./.^.v.2   eXeX",
"eXeXe H.).).(.(.(.(.f.; eXeXeXeXeXeXeXeX; d.^.^.^.^.!.^.c.q eXeX",
"eX  d ~././.(././././.} $ eXeXeXeXeXeX$ } !.!.!.!.!.!.!.Y.a   eX",
"eXeX@ l E./.^.^./.^.^.^.{ $ eXeXeXeX$ [ W.Q.!.Q.Q.Q.Q.L.h @ eXeX",
"eXeXeXX j R.^.!.!.!.!.!.W.' @ eXeX@ ' Y.Q.Q.T.T.T.T.B.g X eXeXeX",
"eXeXeXeX. f P.!.Q.!.Q.Q.Q.Y.` X @ ! I.T.T.T.T.U.U.N.p . eXeXeXeX",
"eXeXeXeXeX. s K.Q.T.T.T.T.T.I.! ! I.U.U.U.U.Z.U.M.p . eXeXeXeXeX",
"eXeXeXeXeXeX  i M.T.T.U.U.U.U.Z.Z.Z.Z.Z.Z.Z.Z.x.t   eXeXeXeXeXeX",
"eXeXeXeXeXeXeX. t x.Z.Z.Z.Z.Z.Z.V.Z.Z.V.V.n.4.r   eXeXeXeXeXeXeX",
"eXeXeXeXeXeXeXeX  z }.F.V.V.V.V.V.n.n.n.n.4.w   eXeXeXeXeXeXeXeX",
"eXeXeXeXeXeXeXeXeX#X2X'.A.D.D.S.m.n.S.S.A.k 5 eXeXeXeXeX2X#XeXeX",
"eX>X5X5X5X5X5X>XeX>X0X3X,X,X,X,X Xq.-X<X,X>X2X9X9XeXeX4X0X4X;XeX",
"eX4XqX#XB B V N eX;XqXOXt.t.+XwX$X5.6X4X`.m v V 5XoXeX5XqX#Xx eX",
"eX9XwXV eXeXeXeX  #XwXu.3.8.].wX%X| 6X3X( #.7 % 5X2XeX5XwXV eXeX",
"eX0XwXoXeXeXeX% 0 &XwXp.8.0.{.wX%X%.7X4X..w.$.y 4X9XeX0XwXoXeXeX",
"eX5XwXqXqXwXqX*X@.=XqXy.7.9.[.wX@X%.1XwX8X7X|.&.<X2XeX9XwXqX:XeX",
"eXeXXXV B N M r.+.e.y.~ 1.9._ n u ^ s.i.i.i. .O.a.b o eXXXV c eX",
"eXeXeXeX  : o.>.1.2.>.1.1./ -     - K =.=.=.=.<.:.I >   eXeXeXeX",
"eXeXeX  > o.2.2.2.2.2.2./ - eXeXeXeX- K :.:.:.:.-.:.P :   eXeXeX",
"eXeX  : / 2.2.:.<.<.:.J & eXeXeXeXeXeX& J -.-.-.-.-.Q P =   eXeX",
"eXeXO H <.:.:.:.:.:.H # eXeXeXeXeXeXeXeX# G Q Q Q Q Q Q F O eXeX",
"eXeX  9 *.:.:.-.-.D # eXeXeXeXeXeXeXeXeXeX+ A W R W W T 8   eXeX",
"eXeXeX. 9 U -.Q S # eXeXeXeXeXeXeXeXeXeXeXeX# C R R Y 6   eXeXeX",
"eXeXeXeX  8 U Z O eXeXeXeXeXeXeXeXeXeXeXeXeXeXO C L 6   eXeXeXeX",
"eXeXeXeXeX. = O eXeXeXeXeXeXeXeXeXeXeXeXeXeXeXeXO = . eXeXeXeXeX",
"eXeXeXeXeXeXeXeXeXeXeXeXeXeXeXeXeXeXeXeXeXeXeXeXeXeXeXeXeXeXeXeX",
"eXeXeXeXeXeXeXeXeXeXeXeXeXeXeXeXeXeXeXeXeXeXeXeXeXeXeXeXeXeXeXeX"
};
